# xmcd
#
# Track frame offsets: 
#        150
#        16709
#        31822
#        47104
#        63414
#        82936
#        100031
#        114162
#        130632
#        146430
#        166253
#
# Disc length: 2451 seconds
#
# Revision: 2
# Processed by: cddbd v1.5.2PL0 Copyright (c) Steve Scherf et al.
# Submitted via: ExactAudioCopy v1.0b3
#
DISCID=7709910b
DTITLE=Jimmie Van Zant - Feels Like Freedom
DYEAR=2012
DGENRE=Country-Rock
TTITLE0=Chasing Shadows
TTITLE1=Ain't Quite Mary Jane
TTITLE2=Wildest Branch
TTITLE3=When You Gonna Learn
TTITLE4=Feels Like Freedom
TTITLE5=That'll Take You Back
TTITLE6=Southern Rock
TTITLE7=Unfinished Life
TTITLE8=Runaway Train
TTITLE9=Come On Man
TTITLE10=Stronger Stuff
EXTD=
EXTT0=
EXTT1=
EXTT2=
EXTT3=
EXTT4=
EXTT5=
EXTT6=
EXTT7=
EXTT8=
EXTT9=
EXTT10=
PLAYORDER=
